<?xml version="1.0" encoding="UTF-8" standalone="no"?>
<!-- Created with Inkscape (http://www.inkscape.org/) -->

<svg
   width="57.053444mm"
   height="10.302738mm"
   viewBox="0 0 57.053444 10.302738"
   version="1.1"
   id="svg2621"
   sodipodi:docname="Balken_Problem.svg"
   inkscape:version="1.2.2 (b0a8486541, 2022-12-01)"
   inkscape:export-filename="Balken_Problem.png"
   inkscape:export-xdpi="200"
   inkscape:export-ydpi="200"
   xmlns:inkscape="http://www.inkscape.org/namespaces/inkscape"
   xmlns:sodipodi="http://sodipodi.sourceforge.net/DTD/sodipodi-0.dtd"
   xmlns="http://www.w3.org/2000/svg"
   xmlns:svg="http://www.w3.org/2000/svg">
  <sodipodi:namedview
     id="namedview2623"
     pagecolor="#ffffff"
     bordercolor="#000000"
     borderopacity="0.25"
     inkscape:showpageshadow="2"
     inkscape:pageopacity="0.0"
     inkscape:pagecheckerboard="0"
     inkscape:deskcolor="#d1d1d1"
     inkscape:document-units="mm"
     showgrid="false"
     showguides="true"
     inkscape:zoom="3.3638608"
     inkscape:cx="142.09863"
     inkscape:cy="86.210463"
     inkscape:window-width="1908"
     inkscape:window-height="1119"
     inkscape:window-x="1920"
     inkscape:window-y="0"
     inkscape:window-maximized="1"
     inkscape:current-layer="layer1">
    <sodipodi:guide
       position="10.747091,4.4097046"
       orientation="0,-1"
       id="guide3143"
       inkscape:locked="false" />
    <sodipodi:guide
       position="9.6459247,2.0107347"
       orientation="0,-1"
       id="guide3145"
       inkscape:locked="false" />
    <sodipodi:guide
       position="6.3508428,0.16234479"
       orientation="0,-1"
       id="guide3748"
       inkscape:locked="false" />
    <sodipodi:guide
       position="25.453143,9.7033444"
       orientation="1,0"
       id="guide3996"
       inkscape:locked="false" />
  </sodipodi:namedview>
  <defs
     id="defs2618">
    <marker
       style="overflow:visible"
       id="TriangleStart"
       refX="0"
       refY="0"
       orient="auto-start-reverse"
       inkscape:stockid="TriangleStart"
       markerWidth="5.3244081"
       markerHeight="6.155385"
       viewBox="0 0 5.3244081 6.1553851"
       inkscape:isstock="true"
       inkscape:collect="always"
       preserveAspectRatio="xMidYMid">
      <path
         transform="scale(0.5)"
         style="fill:context-stroke;fill-rule:evenodd;stroke:context-stroke;stroke-width:1pt"
         d="M 5.77,0 -2.88,5 V -5 Z"
         id="path135" />
    </marker>
    <marker
       style="overflow:visible"
       id="TriangleStart-3"
       refX="0"
       refY="0"
       orient="auto-start-reverse"
       inkscape:stockid="TriangleStart"
       markerWidth="5.3244081"
       markerHeight="6.155385"
       viewBox="0 0 5.3244081 6.1553851"
       inkscape:isstock="true"
       inkscape:collect="always"
       preserveAspectRatio="xMidYMid">
      <path
         transform="scale(0.5)"
         style="fill:context-stroke;fill-rule:evenodd;stroke:context-stroke;stroke-width:1pt"
         d="M 5.77,0 -2.88,5 V -5 Z"
         id="path135-6" />
    </marker>
    <marker
       style="overflow:visible"
       id="TriangleStart-6"
       refX="0"
       refY="0"
       orient="auto-start-reverse"
       inkscape:stockid="TriangleStart"
       markerWidth="5.3244081"
       markerHeight="6.155385"
       viewBox="0 0 5.3244081 6.1553851"
       inkscape:isstock="true"
       inkscape:collect="always"
       preserveAspectRatio="xMidYMid">
      <path
         transform="scale(0.5)"
         style="fill:context-stroke;fill-rule:evenodd;stroke:context-stroke;stroke-width:1pt"
         d="M 5.77,0 -2.88,5 V -5 Z"
         id="path135-2" />
    </marker>
    <marker
       style="overflow:visible"
       id="TriangleStart-1"
       refX="0"
       refY="0"
       orient="auto-start-reverse"
       inkscape:stockid="TriangleStart"
       markerWidth="5.3244081"
       markerHeight="6.155385"
       viewBox="0 0 5.3244081 6.1553851"
       inkscape:isstock="true"
       inkscape:collect="always"
       preserveAspectRatio="xMidYMid">
      <path
         transform="scale(0.5)"
         style="fill:context-stroke;fill-rule:evenodd;stroke:context-stroke;stroke-width:1pt"
         d="M 5.77,0 -2.88,5 V -5 Z"
         id="path135-8" />
    </marker>
    <marker
       style="overflow:visible"
       id="TriangleStart-3-7"
       refX="0"
       refY="0"
       orient="auto-start-reverse"
       inkscape:stockid="TriangleStart"
       markerWidth="5.3244081"
       markerHeight="6.155385"
       viewBox="0 0 5.3244081 6.1553851"
       inkscape:isstock="true"
       inkscape:collect="always"
       preserveAspectRatio="xMidYMid">
      <path
         transform="scale(0.5)"
         style="fill:context-stroke;fill-rule:evenodd;stroke:context-stroke;stroke-width:1pt"
         d="M 5.77,0 -2.88,5 V -5 Z"
         id="path135-6-9" />
    </marker>
    <marker
       style="overflow:visible"
       id="TriangleStart-6-2"
       refX="0"
       refY="0"
       orient="auto-start-reverse"
       inkscape:stockid="TriangleStart"
       markerWidth="5.3244081"
       markerHeight="6.155385"
       viewBox="0 0 5.3244081 6.1553851"
       inkscape:isstock="true"
       inkscape:collect="always"
       preserveAspectRatio="xMidYMid">
      <path
         transform="scale(0.5)"
         style="fill:context-stroke;fill-rule:evenodd;stroke:context-stroke;stroke-width:1pt"
         d="M 5.77,0 -2.88,5 V -5 Z"
         id="path135-2-0" />
    </marker>
    <marker
       style="overflow:visible"
       id="TriangleStart-5"
       refX="0"
       refY="0"
       orient="auto-start-reverse"
       inkscape:stockid="TriangleStart"
       markerWidth="5.3244081"
       markerHeight="6.155385"
       viewBox="0 0 5.3244081 6.1553851"
       inkscape:isstock="true"
       inkscape:collect="always"
       preserveAspectRatio="xMidYMid">
      <path
         transform="scale(0.5)"
         style="fill:context-stroke;fill-rule:evenodd;stroke:context-stroke;stroke-width:1pt"
         d="M 5.77,0 -2.88,5 V -5 Z"
         id="path135-9" />
    </marker>
    <marker
       style="overflow:visible"
       id="TriangleStart-3-2"
       refX="0"
       refY="0"
       orient="auto-start-reverse"
       inkscape:stockid="TriangleStart"
       markerWidth="5.3244081"
       markerHeight="6.155385"
       viewBox="0 0 5.3244081 6.1553851"
       inkscape:isstock="true"
       inkscape:collect="always"
       preserveAspectRatio="xMidYMid">
      <path
         transform="scale(0.5)"
         style="fill:context-stroke;fill-rule:evenodd;stroke:context-stroke;stroke-width:1pt"
         d="M 5.77,0 -2.88,5 V -5 Z"
         id="path135-6-2" />
    </marker>
    <marker
       style="overflow:visible"
       id="TriangleStart-6-8"
       refX="0"
       refY="0"
       orient="auto-start-reverse"
       inkscape:stockid="TriangleStart"
       markerWidth="5.3244081"
       markerHeight="6.155385"
       viewBox="0 0 5.3244081 6.1553851"
       inkscape:isstock="true"
       inkscape:collect="always"
       preserveAspectRatio="xMidYMid">
      <path
         transform="scale(0.5)"
         style="fill:context-stroke;fill-rule:evenodd;stroke:context-stroke;stroke-width:1pt"
         d="M 5.77,0 -2.88,5 V -5 Z"
         id="path135-2-9" />
    </marker>
    <marker
       style="overflow:visible"
       id="TriangleStart-2"
       refX="0"
       refY="0"
       orient="auto-start-reverse"
       inkscape:stockid="TriangleStart"
       markerWidth="5.3244081"
       markerHeight="6.155385"
       viewBox="0 0 5.3244081 6.1553851"
       inkscape:isstock="true"
       inkscape:collect="always"
       preserveAspectRatio="xMidYMid">
      <path
         transform="scale(0.5)"
         style="fill:context-stroke;fill-rule:evenodd;stroke:context-stroke;stroke-width:1pt"
         d="M 5.77,0 -2.88,5 V -5 Z"
         id="path135-93" />
    </marker>
    <marker
       style="overflow:visible"
       id="TriangleStart-3-1"
       refX="0"
       refY="0"
       orient="auto-start-reverse"
       inkscape:stockid="TriangleStart"
       markerWidth="5.3244081"
       markerHeight="6.155385"
       viewBox="0 0 5.3244081 6.1553851"
       inkscape:isstock="true"
       inkscape:collect="always"
       preserveAspectRatio="xMidYMid">
      <path
         transform="scale(0.5)"
         style="fill:context-stroke;fill-rule:evenodd;stroke:context-stroke;stroke-width:1pt"
         d="M 5.77,0 -2.88,5 V -5 Z"
         id="path135-6-94" />
    </marker>
    <marker
       style="overflow:visible"
       id="TriangleStart-6-7"
       refX="0"
       refY="0"
       orient="auto-start-reverse"
       inkscape:stockid="TriangleStart"
       markerWidth="5.3244081"
       markerHeight="6.155385"
       viewBox="0 0 5.3244081 6.1553851"
       inkscape:isstock="true"
       inkscape:collect="always"
       preserveAspectRatio="xMidYMid">
      <path
         transform="scale(0.5)"
         style="fill:context-stroke;fill-rule:evenodd;stroke:context-stroke;stroke-width:1pt"
         d="M 5.77,0 -2.88,5 V -5 Z"
         id="path135-2-8" />
    </marker>
    <marker
       style="overflow:visible"
       id="TriangleStart-36"
       refX="0"
       refY="0"
       orient="auto-start-reverse"
       inkscape:stockid="TriangleStart"
       markerWidth="5.3244081"
       markerHeight="6.155385"
       viewBox="0 0 5.3244081 6.1553851"
       inkscape:isstock="true"
       inkscape:collect="always"
       preserveAspectRatio="xMidYMid">
      <path
         transform="scale(0.5)"
         style="fill:context-stroke;fill-rule:evenodd;stroke:context-stroke;stroke-width:1pt"
         d="M 5.77,0 -2.88,5 V -5 Z"
         id="path135-1" />
    </marker>
    <marker
       style="overflow:visible"
       id="TriangleStart-3-0"
       refX="0"
       refY="0"
       orient="auto-start-reverse"
       inkscape:stockid="TriangleStart"
       markerWidth="5.3244081"
       markerHeight="6.155385"
       viewBox="0 0 5.3244081 6.1553851"
       inkscape:isstock="true"
       inkscape:collect="always"
       preserveAspectRatio="xMidYMid">
      <path
         transform="scale(0.5)"
         style="fill:context-stroke;fill-rule:evenodd;stroke:context-stroke;stroke-width:1pt"
         d="M 5.77,0 -2.88,5 V -5 Z"
         id="path135-6-6" />
    </marker>
    <marker
       style="overflow:visible"
       id="TriangleStart-6-3"
       refX="0"
       refY="0"
       orient="auto-start-reverse"
       inkscape:stockid="TriangleStart"
       markerWidth="5.3244081"
       markerHeight="6.155385"
       viewBox="0 0 5.3244081 6.1553851"
       inkscape:isstock="true"
       inkscape:collect="always"
       preserveAspectRatio="xMidYMid">
      <path
         transform="scale(0.5)"
         style="fill:context-stroke;fill-rule:evenodd;stroke:context-stroke;stroke-width:1pt"
         d="M 5.77,0 -2.88,5 V -5 Z"
         id="path135-2-2" />
    </marker>
    <marker
       style="overflow:visible"
       id="TriangleStart-54"
       refX="0"
       refY="0"
       orient="auto-start-reverse"
       inkscape:stockid="TriangleStart"
       markerWidth="5.3244081"
       markerHeight="6.155385"
       viewBox="0 0 5.3244081 6.1553851"
       inkscape:isstock="true"
       inkscape:collect="always"
       preserveAspectRatio="xMidYMid">
      <path
         transform="scale(0.5)"
         style="fill:context-stroke;fill-rule:evenodd;stroke:context-stroke;stroke-width:1pt"
         d="M 5.77,0 -2.88,5 V -5 Z"
         id="path135-7" />
    </marker>
    <marker
       style="overflow:visible"
       id="TriangleStart-3-6"
       refX="0"
       refY="0"
       orient="auto-start-reverse"
       inkscape:stockid="TriangleStart"
       markerWidth="5.3244081"
       markerHeight="6.155385"
       viewBox="0 0 5.3244081 6.1553851"
       inkscape:isstock="true"
       inkscape:collect="always"
       preserveAspectRatio="xMidYMid">
      <path
         transform="scale(0.5)"
         style="fill:context-stroke;fill-rule:evenodd;stroke:context-stroke;stroke-width:1pt"
         d="M 5.77,0 -2.88,5 V -5 Z"
         id="path135-6-5" />
    </marker>
    <marker
       style="overflow:visible"
       id="TriangleStart-6-6"
       refX="0"
       refY="0"
       orient="auto-start-reverse"
       inkscape:stockid="TriangleStart"
       markerWidth="5.3244081"
       markerHeight="6.155385"
       viewBox="0 0 5.3244081 6.1553851"
       inkscape:isstock="true"
       inkscape:collect="always"
       preserveAspectRatio="xMidYMid">
      <path
         transform="scale(0.5)"
         style="fill:context-stroke;fill-rule:evenodd;stroke:context-stroke;stroke-width:1pt"
         d="M 5.77,0 -2.88,5 V -5 Z"
         id="path135-2-93" />
    </marker>
    <marker
       style="overflow:visible"
       id="TriangleStart-7"
       refX="0"
       refY="0"
       orient="auto-start-reverse"
       inkscape:stockid="TriangleStart"
       markerWidth="5.3244081"
       markerHeight="6.155385"
       viewBox="0 0 5.3244081 6.1553851"
       inkscape:isstock="true"
       inkscape:collect="always"
       preserveAspectRatio="xMidYMid">
      <path
         transform="scale(0.5)"
         style="fill:context-stroke;fill-rule:evenodd;stroke:context-stroke;stroke-width:1pt"
         d="M 5.77,0 -2.88,5 V -5 Z"
         id="path135-4" />
    </marker>
    <marker
       style="overflow:visible"
       id="TriangleStart-3-4"
       refX="0"
       refY="0"
       orient="auto-start-reverse"
       inkscape:stockid="TriangleStart"
       markerWidth="5.3244081"
       markerHeight="6.155385"
       viewBox="0 0 5.3244081 6.1553851"
       inkscape:isstock="true"
       inkscape:collect="always"
       preserveAspectRatio="xMidYMid">
      <path
         transform="scale(0.5)"
         style="fill:context-stroke;fill-rule:evenodd;stroke:context-stroke;stroke-width:1pt"
         d="M 5.77,0 -2.88,5 V -5 Z"
         id="path135-6-3" />
    </marker>
    <marker
       style="overflow:visible"
       id="TriangleStart-6-0"
       refX="0"
       refY="0"
       orient="auto-start-reverse"
       inkscape:stockid="TriangleStart"
       markerWidth="5.3244081"
       markerHeight="6.155385"
       viewBox="0 0 5.3244081 6.1553851"
       inkscape:isstock="true"
       inkscape:collect="always"
       preserveAspectRatio="xMidYMid">
      <path
         transform="scale(0.5)"
         style="fill:context-stroke;fill-rule:evenodd;stroke:context-stroke;stroke-width:1pt"
         d="M 5.77,0 -2.88,5 V -5 Z"
         id="path135-2-7" />
    </marker>
    <clipPath
       id="clipPath6503">
      <path
         clip-rule="nonzero"
         d="m 9,0 h 5 V 17.1875 H 9 Z m 0,0"
         id="path1703" />
    </clipPath>
    <clipPath
       id="clipPath7903">
      <path
         clip-rule="nonzero"
         d="m 24,0 h 5 v 17.1875 h -5 z m 0,0"
         id="path3240" />
    </clipPath>
  </defs>
  <g
     inkscape:label="Layer 1"
     inkscape:groupmode="layer"
     id="layer1"
     transform="translate(-76.048326,-47.120197)">
    <path
       style="fill:none;stroke:#000000;stroke-width:0.2;stroke-linecap:butt;stroke-linejoin:miter;stroke-miterlimit:4;stroke-dasharray:none;stroke-opacity:1"
       d="m 77.444807,55.412201 h 4.870476"
       id="path978"
       sodipodi:nodetypes="cc" />
    <path
       style="fill:none;stroke:#000000;stroke-width:0.264583px;stroke-linecap:butt;stroke-linejoin:miter;stroke-opacity:1"
       d="m 78.287255,55.360308 1.467137,-1.886633"
       id="path5699"
       sodipodi:nodetypes="cc" />
    <path
       style="fill:none;stroke:#000000;stroke-width:0.264583px;stroke-linecap:butt;stroke-linejoin:miter;stroke-opacity:1"
       d="m 79.754392,53.473675 1.171684,1.952801"
       id="path5701"
       sodipodi:nodetypes="cc" />
    <circle
       style="fill:none;stroke:#000000;stroke-width:0.265;stroke-miterlimit:4;stroke-dasharray:none"
       id="path5805"
       cx="79.795219"
       cy="-53.025787"
       r="0.44909272"
       transform="scale(1,-1)" />
    <path
       style="fill:none;stroke:#000000;stroke-width:0.2;stroke-linecap:butt;stroke-linejoin:miter;stroke-dasharray:none;stroke-opacity:1"
       d="m 76.123305,57.352814 1.699946,-1.926339"
       id="path980"
       sodipodi:nodetypes="cc" />
    <path
       style="fill:none;stroke:#000000;stroke-width:0.2;stroke-linecap:butt;stroke-linejoin:miter;stroke-dasharray:none;stroke-opacity:1"
       d="m 77.444807,57.352814 1.684897,-1.926338"
       id="path980-3"
       sodipodi:nodetypes="cc" />
    <path
       style="fill:none;stroke:#000000;stroke-width:0.2;stroke-linecap:butt;stroke-linejoin:miter;stroke-dasharray:none;stroke-opacity:1"
       d="m 79.031469,57.352814 1.894607,-1.926338"
       id="path980-6"
       sodipodi:nodetypes="cc" />
    <path
       style="fill:none;stroke:#000000;stroke-width:0.2;stroke-linecap:butt;stroke-linejoin:miter;stroke-dasharray:none;stroke-opacity:1"
       d="m 80.519707,57.260591 1.783372,-1.834115"
       id="path980-7"
       sodipodi:nodetypes="cc" />
    <path
       style="fill:none;stroke:#000000;stroke-width:0.2;stroke-linecap:butt;stroke-linejoin:miter;stroke-miterlimit:4;stroke-dasharray:none;stroke-opacity:1"
       d="m 120.31311,55.401468 h 4.87047"
       id="path978-5"
       sodipodi:nodetypes="cc" />
    <path
       style="fill:none;stroke:#000000;stroke-width:0.264583px;stroke-linecap:butt;stroke-linejoin:miter;stroke-opacity:1"
       d="m 121.47955,54.878267 1.14314,-1.415325"
       id="path5699-6" />
    <path
       style="fill:none;stroke:#000000;stroke-width:0.264583px;stroke-linecap:butt;stroke-linejoin:miter;stroke-opacity:1"
       d="m 122.62269,53.462942 1.25202,1.415325"
       id="path5701-2" />
    <path
       style="fill:none;stroke:#000000;stroke-width:0.264583px;stroke-linecap:butt;stroke-linejoin:miter;stroke-opacity:1"
       d="m 121.47955,54.878267 h 2.39516"
       id="path5701-3-9"
       sodipodi:nodetypes="cc" />
    <circle
       style="fill:none;stroke:#000000;stroke-width:0.265;stroke-miterlimit:4;stroke-dasharray:none"
       id="path5805-1"
       cx="122.66352"
       cy="-53.015053"
       r="0.44909272"
       transform="scale(1,-1)" />
    <path
       style="fill:none;stroke:#000000;stroke-width:0.2;stroke-linecap:butt;stroke-linejoin:miter;stroke-dasharray:none;stroke-opacity:1"
       d="m 118.99161,57.342081 1.69994,-1.926339"
       id="path980-2"
       sodipodi:nodetypes="cc" />
    <path
       style="fill:none;stroke:#000000;stroke-width:0.2;stroke-linecap:butt;stroke-linejoin:miter;stroke-dasharray:none;stroke-opacity:1"
       d="m 120.31311,57.342081 1.6849,-1.926338"
       id="path980-3-7"
       sodipodi:nodetypes="cc" />
    <path
       style="fill:none;stroke:#000000;stroke-width:0.2;stroke-linecap:butt;stroke-linejoin:miter;stroke-dasharray:none;stroke-opacity:1"
       d="m 121.89977,57.342081 1.89461,-1.926338"
       id="path980-6-0"
       sodipodi:nodetypes="cc" />
    <path
       style="fill:none;stroke:#000000;stroke-width:0.2;stroke-linecap:butt;stroke-linejoin:miter;stroke-dasharray:none;stroke-opacity:1"
       d="m 123.38801,57.249858 1.78337,-1.834115"
       id="path980-7-9"
       sodipodi:nodetypes="cc" />
    <path
       style="fill:#000000;stroke:#000000;stroke-width:0.6;stroke-dasharray:none"
       d="m 80.244311,53.025785 41.970119,-0.01074"
       id="path3886" />
    <rect
       style="fill:none;stroke:#ff0000;stroke-width:0.2;stroke-dasharray:none"
       id="rect4050"
       width="42.868301"
       height="2.1134553"
       x="79.795219"
       y="49.276878" />
    <path
       style="fill:none;stroke:#ff0000;stroke-width:0.2;stroke-dasharray:none;marker-end:url(#TriangleStart)"
       d="m 81.039514,49.176879 10e-7,1.423579"
       id="path4158"
       sodipodi:nodetypes="cc" />
    <path
       style="fill:none;stroke:#ff0000;stroke-width:0.2;stroke-dasharray:none;marker-end:url(#TriangleStart-3)"
       d="m 83.175588,49.176879 10e-7,1.423579"
       id="path4158-0"
       sodipodi:nodetypes="cc" />
    <path
       style="fill:none;stroke:#ff0000;stroke-width:0.2;stroke-dasharray:none;marker-end:url(#TriangleStart-6)"
       d="m 85.066574,49.176879 10e-7,1.423579"
       id="path4158-6"
       sodipodi:nodetypes="cc" />
    <path
       style="fill:none;stroke:#ff0000;stroke-width:0.2;stroke-dasharray:none;marker-end:url(#TriangleStart-1)"
       d="m 86.95756,49.176879 10e-7,1.423579"
       id="path4158-2"
       sodipodi:nodetypes="cc" />
    <path
       style="fill:none;stroke:#ff0000;stroke-width:0.2;stroke-dasharray:none;marker-end:url(#TriangleStart-3-7)"
       d="m 89.093634,49.176879 1e-6,1.423579"
       id="path4158-0-3"
       sodipodi:nodetypes="cc" />
    <path
       style="fill:none;stroke:#ff0000;stroke-width:0.2;stroke-dasharray:none;marker-end:url(#TriangleStart-6-2)"
       d="m 90.98462,49.176879 10e-7,1.423579"
       id="path4158-6-7"
       sodipodi:nodetypes="cc" />
    <path
       style="fill:none;stroke:#ff0000;stroke-width:0.2;stroke-dasharray:none;marker-end:url(#TriangleStart-5)"
       d="m 92.875606,49.176879 10e-7,1.423579"
       id="path4158-7"
       sodipodi:nodetypes="cc" />
    <path
       style="fill:none;stroke:#ff0000;stroke-width:0.2;stroke-dasharray:none;marker-end:url(#TriangleStart-3-2)"
       d="m 95.01168,49.176879 10e-7,1.423579"
       id="path4158-0-36"
       sodipodi:nodetypes="cc" />
    <path
       style="fill:none;stroke:#ff0000;stroke-width:0.2;stroke-dasharray:none;marker-end:url(#TriangleStart-6-8)"
       d="m 96.902666,49.176879 10e-7,1.423579"
       id="path4158-6-1"
       sodipodi:nodetypes="cc" />
    <path
       style="fill:none;stroke:#ff0000;stroke-width:0.2;stroke-dasharray:none;marker-end:url(#TriangleStart-2)"
       d="m 99.03874,49.176879 10e-7,1.423579"
       id="path4158-4"
       sodipodi:nodetypes="cc" />
    <path
       style="fill:none;stroke:#ff0000;stroke-width:0.2;stroke-dasharray:none;marker-end:url(#TriangleStart-3-1)"
       d="m 101.17481,49.176879 v 1.423579"
       id="path4158-0-5"
       sodipodi:nodetypes="cc" />
    <path
       style="fill:none;stroke:#ff0000;stroke-width:0.2;stroke-dasharray:none;marker-end:url(#TriangleStart-6-7)"
       d="m 103.0658,49.176879 v 1.423579"
       id="path4158-6-0"
       sodipodi:nodetypes="cc" />
    <path
       style="fill:none;stroke:#ff0000;stroke-width:0.2;stroke-dasharray:none;marker-end:url(#TriangleStart-36)"
       d="m 104.95679,49.266709 v 1.423579"
       id="path4158-06"
       sodipodi:nodetypes="cc" />
    <path
       style="fill:none;stroke:#ff0000;stroke-width:0.2;stroke-dasharray:none;marker-end:url(#TriangleStart-3-0)"
       d="m 107.09287,49.266709 v 1.423579"
       id="path4158-0-1"
       sodipodi:nodetypes="cc" />
    <path
       style="fill:none;stroke:#ff0000;stroke-width:0.2;stroke-dasharray:none;marker-end:url(#TriangleStart-6-3)"
       d="m 108.98385,49.266709 v 1.423579"
       id="path4158-6-5"
       sodipodi:nodetypes="cc" />
    <path
       style="fill:none;stroke:#ff0000;stroke-width:0.2;stroke-dasharray:none;marker-end:url(#TriangleStart-54)"
       d="m 111.11994,49.266709 v 1.423579"
       id="path4158-74"
       sodipodi:nodetypes="cc" />
    <path
       style="fill:none;stroke:#ff0000;stroke-width:0.2;stroke-dasharray:none;marker-end:url(#TriangleStart-3-6)"
       d="m 113.25602,49.266709 v 1.423579"
       id="path4158-0-52"
       sodipodi:nodetypes="cc" />
    <path
       style="fill:none;stroke:#ff0000;stroke-width:0.2;stroke-dasharray:none;marker-end:url(#TriangleStart-6-6)"
       d="m 115.147,49.266709 v 1.423579"
       id="path4158-6-54"
       sodipodi:nodetypes="cc" />
    <path
       style="fill:none;stroke:#ff0000;stroke-width:0.2;stroke-dasharray:none;marker-end:url(#TriangleStart-7)"
       d="m 116.79288,49.266709 1e-5,1.423579"
       id="path4158-8"
       sodipodi:nodetypes="cc" />
    <path
       style="fill:none;stroke:#ff0000;stroke-width:0.2;stroke-dasharray:none;marker-end:url(#TriangleStart-3-4)"
       d="m 118.92896,49.266709 v 1.423579"
       id="path4158-0-6"
       sodipodi:nodetypes="cc" />
    <path
       style="fill:none;stroke:#ff0000;stroke-width:0.2;stroke-dasharray:none;marker-end:url(#TriangleStart-6-0)"
       d="m 120.81995,49.266709 v 1.423579"
       id="path4158-6-8"
       sodipodi:nodetypes="cc" />
    <g
       inkscape:label=""
       transform="matrix(0.40603024,0,0,0.40603024,123.98639,47.120198)"
       id="g6430"
       style="fill:#ff0000">
      <g
         fill="#000000"
         fill-opacity="1"
         id="g32"
         transform="matrix(0.352778,0,0,0.352778,-0.237023,-0.00224907)"
         style="fill:#ff0000">
        <g
           id="use30"
           transform="translate(0,12.897)"
           style="fill:#ff0000">
          <path
             d="m 7.59375,-7.421875 c 0,-0.078125 -0.0625,-0.15625 -0.15625,-0.15625 -0.140625,0 -0.8125,0.625 -1.140625,1.21875 C 5.984375,-7.125 5.453125,-7.59375 4.71875,-7.59375 c -1.953125,0 -4.046875,2.515625 -4.046875,5.0625 0,1.703125 1,2.703125 2.171875,2.703125 0.90625,0 1.671875,-0.6875 2.03125,-1.078125 l 0.015625,0.015625 -0.65625,2.578125 -0.15625,0.625 c -0.15625,0.515625 -0.40625,0.515625 -1.21875,0.53125 -0.1875,0 -0.359375,0 -0.359375,0.328125 0,0.109375 0.09375,0.171875 0.21875,0.171875 0.25,0 0.546875,-0.03125 0.796875,-0.03125 h 1.75 c 0.265625,0 0.546875,0.03125 0.8125,0.03125 0.109375,0 0.3125,0 0.3125,-0.328125 C 6.390625,2.84375 6.25,2.84375 5.984375,2.84375 5.1875,2.84375 5.125,2.71875 5.125,2.578125 5.125,2.5 5.140625,2.484375 5.203125,2.25 Z m -2.421875,5.375 C 5.078125,-1.75 5.078125,-1.71875 4.84375,-1.390625 c -0.390625,0.484375 -1.140625,1.21875 -1.953125,1.21875 -0.703125,0 -1.09375,-0.640625 -1.09375,-1.65625 0,-0.9375 0.53125,-2.875 0.859375,-3.59375 C 3.234375,-6.625 4.046875,-7.25 4.71875,-7.25 c 1.140625,0 1.359375,1.40625 1.359375,1.546875 0,0.015625 -0.046875,0.25 -0.0625,0.28125 z m 0,0"
             id="path66"
             style="fill:#ff0000" />
        </g>
      </g>
      <g
         clip-path="url(#clipPath6503)"
         id="g38"
         transform="matrix(0.352778,0,0,0.352778,-0.237023,-0.00224907)"
         style="fill:#ff0000">
        <g
           fill="#000000"
           fill-opacity="1"
           id="g36"
           style="fill:#ff0000">
          <g
             id="use34"
             transform="translate(8.092,12.897)"
             style="fill:#ff0000">
            <path
               d="m 5.265625,4.203125 c 0,-0.015625 0,-0.046875 -0.046875,-0.109375 -0.796875,-0.8125 -2.90625,-3.015625 -2.90625,-8.375 0,-5.375 2.078125,-7.5625 2.921875,-8.421875 0,-0.01563 0.03125,-0.0625 0.03125,-0.109375 0,-0.04687 -0.046875,-0.07813 -0.125,-0.07813 -0.1875,0 -1.640625,1.265625 -2.484375,3.15625 -0.859375,1.921875 -1.109375,3.78125 -1.109375,5.421875 0,1.25 0.125,3.34375 1.15625,5.5625 0.828125,1.796875 2.234375,3.0625 2.4375,3.0625 0.09375,0 0.125,-0.046875 0.125,-0.109375 z m 0,0"
               id="path70"
               style="fill:#ff0000" />
          </g>
        </g>
      </g>
      <g
         fill="#000000"
         fill-opacity="1"
         id="g42"
         transform="matrix(0.352778,0,0,0.352778,-0.237023,-0.00224907)"
         style="fill:#ff0000">
        <g
           id="use40"
           transform="translate(14.188,12.897)"
           style="fill:#ff0000">
          <path
             d="m 8.15625,-7.03125 c -0.546875,0.109375 -0.75,0.515625 -0.75,0.84375 0,0.421875 0.328125,0.5625 0.5625,0.5625 0.515625,0 0.875,-0.453125 0.875,-0.921875 0,-0.71875 -0.8125,-1.046875 -1.546875,-1.046875 -1.046875,0 -1.625,1.03125 -1.78125,1.359375 -0.40625,-1.296875 -1.46875,-1.359375 -1.78125,-1.359375 -1.75,0 -2.6875,2.25 -2.6875,2.640625 0,0.0625 0.078125,0.15625 0.1875,0.15625 0.140625,0 0.171875,-0.109375 0.21875,-0.171875 C 2.03125,-6.890625 3.1875,-7.25 3.6875,-7.25 c 0.765625,0 0.921875,0.71875 0.921875,1.140625 0,0.375 -0.09375,0.765625 -0.296875,1.59375 L 3.71875,-2.15625 c -0.25,1.03125 -0.75,1.984375 -1.671875,1.984375 -0.078125,0 -0.515625,0 -0.875,-0.21875 0.625,-0.125 0.75,-0.640625 0.75,-0.84375 0,-0.34375 -0.25,-0.5625 -0.578125,-0.5625 -0.40625,0 -0.859375,0.375 -0.859375,0.921875 0,0.71875 0.8125,1.046875 1.546875,1.046875 0.828125,0 1.40625,-0.65625 1.78125,-1.359375 0.265625,1.015625 1.125,1.359375 1.765625,1.359375 1.75,0 2.6875,-2.25 2.6875,-2.640625 0,-0.078125 -0.0625,-0.15625 -0.171875,-0.15625 -0.15625,0 -0.171875,0.09375 -0.21875,0.234375 -0.46875,1.515625 -1.46875,2.21875 -2.25,2.21875 -0.59375,0 -0.921875,-0.453125 -0.921875,-1.15625 0,-0.375 0.0625,-0.65625 0.34375,-1.78125 l 0.59375,-2.34375 C 5.90625,-6.484375 6.484375,-7.25 7.28125,-7.25 c 0.03125,0 0.515625,0 0.875,0.21875 z m 0,0"
             id="path74"
             style="fill:#ff0000" />
        </g>
      </g>
      <g
         clip-path="url(#clipPath7903)"
         id="g48"
         transform="matrix(0.352778,0,0,0.352778,-0.237023,-0.00224907)"
         style="fill:#ff0000">
        <g
           fill="#000000"
           fill-opacity="1"
           id="g46"
           style="fill:#ff0000">
          <g
             id="use44"
             transform="translate(23.767,12.897)"
             style="fill:#ff0000">
            <path
               d="m 4.53125,-4.28125 c 0,-1.25 -0.125,-3.34375 -1.15625,-5.5625 -0.828125,-1.796875 -2.234375,-3.046875 -2.4375,-3.046875 -0.0625,0 -0.125,0.01563 -0.125,0.09375 0,0.03125 0.015625,0.0625 0.03125,0.09375 0.828125,0.859375 2.921875,3.046875 2.921875,8.390625 0,5.375 -2.078125,7.5625 -2.921875,8.421875 C 0.828125,4.15625 0.8125,4.171875 0.8125,4.203125 0.8125,4.28125 0.875,4.3125 0.9375,4.3125 1.125,4.3125 2.578125,3.03125 3.421875,1.140625 4.28125,-0.78125 4.53125,-2.640625 4.53125,-4.28125 Z m 0,0"
               id="path78"
               style="fill:#ff0000" />
          </g>
        </g>
      </g>
      <g
         fill="#000000"
         fill-opacity="1"
         id="g52"
         transform="matrix(0.352778,0,0,0.352778,-0.237023,-0.00224907)"
         style="fill:#ff0000">
        <g
           id="use50"
           transform="translate(34.648853,12.897)"
           style="fill:#ff0000">
          <path
             d="m 11.078125,-5.53125 c 0.25,0 0.515625,0 0.515625,-0.28125 C 11.59375,-6.125 11.296875,-6.125 11,-6.125 H 1.375 c -0.296875,0 -0.578125,0 -0.578125,0.3125 0,0.28125 0.25,0.28125 0.515625,0.28125 z M 11,-2.46875 c 0.296875,0 0.59375,0 0.59375,-0.296875 0,-0.296875 -0.265625,-0.296875 -0.515625,-0.296875 H 1.3125 c -0.265625,0 -0.515625,0 -0.515625,0.296875 0,0.296875 0.28125,0.296875 0.578125,0.296875 z m 0,0"
             id="path82"
             style="fill:#ff0000" />
        </g>
      </g>
      <g
         fill="#000000"
         fill-opacity="1"
         id="g56"
         transform="matrix(0.352778,0,0,0.352778,-0.237023,-0.00224907)"
         style="fill:#ff0000">
        <g
           id="use54"
           transform="translate(51.82,12.897)"
           style="fill:#ff0000">
          <path
             d="m 7.59375,-7.421875 c 0,-0.078125 -0.0625,-0.15625 -0.15625,-0.15625 -0.140625,0 -0.8125,0.625 -1.140625,1.21875 C 5.984375,-7.125 5.453125,-7.59375 4.71875,-7.59375 c -1.953125,0 -4.046875,2.515625 -4.046875,5.0625 0,1.703125 1,2.703125 2.171875,2.703125 0.90625,0 1.671875,-0.6875 2.03125,-1.078125 l 0.015625,0.015625 -0.65625,2.578125 -0.15625,0.625 c -0.15625,0.515625 -0.40625,0.515625 -1.21875,0.53125 -0.1875,0 -0.359375,0 -0.359375,0.328125 0,0.109375 0.09375,0.171875 0.21875,0.171875 0.25,0 0.546875,-0.03125 0.796875,-0.03125 h 1.75 c 0.265625,0 0.546875,0.03125 0.8125,0.03125 0.109375,0 0.3125,0 0.3125,-0.328125 C 6.390625,2.84375 6.25,2.84375 5.984375,2.84375 5.1875,2.84375 5.125,2.71875 5.125,2.578125 5.125,2.5 5.140625,2.484375 5.203125,2.25 Z m -2.421875,5.375 C 5.078125,-1.75 5.078125,-1.71875 4.84375,-1.390625 c -0.390625,0.484375 -1.140625,1.21875 -1.953125,1.21875 -0.703125,0 -1.09375,-0.640625 -1.09375,-1.65625 0,-0.9375 0.53125,-2.875 0.859375,-3.59375 C 3.234375,-6.625 4.046875,-7.25 4.71875,-7.25 c 1.140625,0 1.359375,1.40625 1.359375,1.546875 0,0.015625 -0.046875,0.25 -0.0625,0.28125 z m 0,0"
             id="path86"
             style="fill:#ff0000" />
        </g>
      </g>
      <g
         fill="#000000"
         fill-opacity="1"
         id="g60"
         transform="matrix(0.352778,0,0,0.352778,-0.237023,-0.00224907)"
         style="fill:#ff0000">
        <g
           id="use58"
           transform="translate(59.293999,15.479)"
           style="fill:#ff0000">
          <path
             d="m 5.015625,-3.484375 c 0,-0.875 -0.046875,-1.75 -0.4375,-2.5625 -0.5,-1.046875 -1.390625,-1.21875 -1.859375,-1.21875 -0.640625,0 -1.4375,0.28125 -1.890625,1.296875 -0.34375,0.75 -0.40625,1.609375 -0.40625,2.484375 0,0.8125 0.046875,1.796875 0.5,2.625 0.46875,0.875 1.265625,1.09375 1.796875,1.09375 0.578125,0 1.421875,-0.21875 1.890625,-1.265625 0.359375,-0.75 0.40625,-1.59375 0.40625,-2.453125 z M 2.71875,0 C 2.296875,0 1.640625,-0.265625 1.453125,-1.3125 c -0.125,-0.65625 -0.125,-1.671875 -0.125,-2.3125 0,-0.6875 0,-1.40625 0.09375,-2 C 1.625,-6.921875 2.4375,-7.03125 2.71875,-7.03125 c 0.359375,0 1.078125,0.203125 1.28125,1.28125 0.109375,0.609375 0.109375,1.4375 0.109375,2.125 0,0.828125 0,1.5625 -0.125,2.265625 C 3.828125,-0.328125 3.203125,0 2.71875,0 Z m 0,0"
             id="path90"
             style="fill:#ff0000" />
        </g>
      </g>
    </g>
  </g>
</svg>
